<svg xmlns="http://www.w3.org/2000/svg" xmlns:xlink="http://www.w3.org/1999/xlink" width="76" height="76" viewBox="0 0 76 76">
  <defs>
    <filter id="Rectangle_2" x="10" y="10" width="64" height="64" filterUnits="userSpaceOnUse">
      <feOffset dx="1" dy="1" input="SourceAlpha"/>
      <feGaussianBlur stdDeviation="5.5" result="blur"/>
      <feFlood flood-color="#9298ac"/>
      <feComposite operator="in" in2="blur"/>
      <feComposite in="SourceGraphic"/>
    </filter>
    <filter id="Rectangle_3" x="0" y="0" width="76" height="76" filterUnits="userSpaceOnUse">
      <feOffset dx="-3" dy="-3" input="SourceAlpha"/>
      <feGaussianBlur stdDeviation="7.5" result="blur-2"/>
      <feFlood flood-color="#fff"/>
      <feComposite operator="in" in2="blur-2"/>
    </filter>
    <filter id="Rectangle_3-2" x="0" y="0" width="76" height="76" filterUnits="userSpaceOnUse">
      <feOffset dy="3" input="SourceAlpha"/>
      <feGaussianBlur stdDeviation="3" result="blur-3"/>
      <feFlood flood-opacity="0.161" result="color"/>
      <feComposite operator="out" in="SourceGraphic" in2="blur-3"/>
      <feComposite operator="in" in="color"/>
      <feComposite operator="in" in2="SourceGraphic"/>
    </filter>
  </defs>
  <g id="Group_174" data-name="Group 174" transform="translate(-652.5 -810.5)">
    <g id="Group_7" data-name="Group 7" transform="translate(647 867)">
      <g transform="matrix(1, 0, 0, 1, 5.5, -56.5)" filter="url(#Rectangle_2)">
        <g id="Rectangle_2-2" data-name="Rectangle 2" transform="translate(25.5 25.5)" fill="#f6f6f6" stroke="#f0f0f8" stroke-width="2">
          <rect width="31" height="31" rx="15.5" stroke="none"/>
          <rect x="1" y="1" width="29" height="29" rx="14.5" fill="none"/>
        </g>
      </g>
      <g data-type="innerShadowGroup">
        <g transform="matrix(1, 0, 0, 1, 5.5, -56.5)" filter="url(#Rectangle_3)">
          <g id="Rectangle_3-3" data-name="Rectangle 3" transform="translate(25.5 25.5)" fill="#f0f0f8" stroke="#f0f0f8" stroke-width="2">
            <rect width="31" height="31" rx="15.5" stroke="none"/>
            <rect x="1" y="1" width="29" height="29" rx="14.5" fill="none"/>
          </g>
        </g>
        <rect id="Rectangle_3-4" data-name="Rectangle 3" width="31" height="31" rx="15.5" transform="translate(31 -31)" fill="#f0f0f8"/>
        <g transform="matrix(1, 0, 0, 1, 5.5, -56.5)" filter="url(#Rectangle_3-2)">
          <rect id="Rectangle_3-5" data-name="Rectangle 3" width="31" height="31" rx="15.5" transform="translate(25.5 25.5)" fill="#fff"/>
        </g>
        <g id="Rectangle_3-6" data-name="Rectangle 3" transform="translate(31 -31)" fill="none" stroke="#f0f0f8" stroke-width="2">
          <rect width="31" height="31" rx="15.5" stroke="none"/>
          <rect x="1" y="1" width="29" height="29" rx="14.5" fill="none"/>
        </g>
      </g>
    </g>
  </g>
</svg>

