<svg xmlns="http://www.w3.org/2000/svg" width="100%" height="100%">
 <!-- big circle pattern -->
<svg width="'100%" height="82%" x="-23.71%" viewBox="0 0 675 570" fill="none" xmlns="http://www.w3.org/2000/svg">
<path d="M121.408 407.146L0 196.86V29.9997C0 13.4316 13.4316 0 29.9997 0H558.38L630.21 124.413C658.393 169.202 674.696 222.204 674.696 279C674.696 439.715 544.187 570.001 383.196 570.001C268.27 570.001 168.878 503.608 121.408 407.146Z" fill="#FF5F5C"/>
</svg>
 <!-- small circle pattern -->
<svg width="17%" height="36.8%" x="83%" y="70%" viewBox="0 0 261 206" fill="none" xmlns="http://www.w3.org/2000/svg">
<path opacity="0.246248" d="M1.78357 206C0.607727 197.689 -0.000732422 189.194 -0.000732422 180.56C-0.000732422 80.8396 81.1019 -0.000244141 181.146 -0.000244141C209.807 -0.000244141 236.91 6.633 261 18.4452V176C261 192.568 247.569 206 231 206H1.78357Z" fill="#FF5F5C"/>
</svg>
 <!-- half circle pattern -->
<svg width="80%" height="65%" x="75" y="35" viewBox="0 0 107 458" fill="none" xmlns="http://www.w3.org/2000/svg">
<path d="M25.1228 1.60376C25.1228 1.60376 109.621 91.9648 104.642 239.323C99.6636 386.682 1.58667 456.397 1.58667 456.397" stroke="black" stroke-width="3"/>
</svg>

</svg>