<svg xmlns="http://www.w3.org/2000/svg" xmlns:xlink="http://www.w3.org/1999/xlink" width="1157.903" height="743.75" viewBox="0 0 1157.903 743.75">
<svg xmlns="http://www.w3.org/2000/svg" xmlns:xlink="http://www.w3.org/1999/xlink" width="1157.903" height="743.75" viewBox="0 0 1157.903 743.75">
  <defs>
    <filter id="Path_11" x="0" y="0" width="1157.903" height="743.75" filterUnits="userSpaceOnUse">
      <feOffset dx="15" dy="15" input="SourceAlpha"/>
      <feGaussianBlur stdDeviation="12.5" result="blur"/>
      <feFlood flood-color="#9298ac" flood-opacity="0.616"/>
      <feComposite operator="in" in2="blur"/>
      <feComposite in="SourceGraphic"/>
    </filter>
  </defs>
  <g id="Group_305" data-name="Group 305" transform="translate(22.5 22.5)">
    <g transform="matrix(1, 0, 0, 1, -22.5, -22.5)" filter="url(#Path_11)">
      <path id="Path_11-2" data-name="Path 11" d="M126.539,308.577l4.283,4.979c4.332-1.572,8.1-3.513,12.088-4.277,11.447-2.2,15.908-7.875,14.5-19.8a55.419,55.419,0,0,0,5.3-2.159c4.165-2.187,4.739-5.963,1.276-9.118-2.922-2.662-4.489-5.3-3.206-9.57,1.847-6.137-2.462-10.913-8.819-9.977-5.329.783-9.533,1.081-14.086-3.767-2.952-3.143-9.487-2.922-14.737-4.292,1.182-4.283,1.831-6.429,7.061-6.773,4.165-.274,9.03-4.538,11.777-8.339,4.178-5.774,9.581-8.381,15.77-5.083a50.781,50.781,0,0,1,9.082,5.673,12.4,12.4,0,0,1,4.154,6.367c.845,4.261,3.013,6.593,7.106,7.014,4.339.445,8.628.41,10.743-4.647.574-1.37,1.615-2.545,3.136-4.872,1.345,3.433,2.246,5.731,3.287,8.386l31.492-5.143c-1.472-6.594-3.2-12.661-4.04-18.846-.386-2.825,1.232-5.864,1.46-8.842.3-3.947-1.338-6.481-5.83-6.31-.557.021-1.153-.965-2.759-2.409,3-1.1,5.2-2.321,7.527-2.672,5.492-.828,7.555-3.72,7.094-9.2-.956-11.375,5.395-20.6,16.237-23.945,3.419-1.055,6.707-1.7,8.624,2.749,1.952,4.528,6.063,2.651,9.551,2.962a10.363,10.363,0,0,1,6.288,2.708c3.225,3.506,5.853,7.569,8.65,11.459,2.472,3.438,5.079,6.811,7.2,10.461,2.346,4.046,4.639,7.369,10.191,7.088,1.378-.071,2.953,2.832,4.356,4.438,1.665,1.907,2.887,4.469,4.929,5.729,5.226,3.225,10.967,5.619,16.18,8.862,3.755,2.334,6.836,5.729,10.5,8.244a21.15,21.15,0,0,0,17.351,3.233c19.122-4.267,38.1-4.094,56.977,1.882,10.885,3.446,21.668,1.921,32.015-2.649,4.395-1.943,8.447-3.168,13.226-.4,1.716,1,5.363.238,7.277-1.017,3.959-2.6,7.426-2.051,11.433-.473,8.879,3.495,10.359,3.114,16.5-4.639,4.414-5.572,9.72-8.229,16.913-7.337,1.677.208,3.532-1.006,5.3-1.567-.969-1.758-1.62-3.84-2.992-5.192-1.7-1.671-4.007-2.71-6.023-4.066-4.834-3.256-6.063-6.964-3.9-12.961,1.556-4.32.3-9.651.3-15.13a8.228,8.228,0,0,1,3.14-1.021c3.9.089,5.114-2.068,5.888-5.48,2.012-8.877,3.858-10.048,13.067-9.523,2.417.136,5.339.825,7.193-.221,7.713-4.352,16.233-4.183,24.534-4.945,4.109-.376,8.385.394,12.512,1.084,5.379.9,10.141.916,14.852-2.888,2.368-1.913,6.338-2.389,9.619-2.509a170.831,170.831,0,0,1,18.818.521c4.439.328,6.342-1.785,7-5.732.134-.8.2-1.609.325-2.411,2.9-19.041,6.4-22.4,26.294-24.788.585,1.276,1.276,2.669,1.868,4.1,1.4,3.39,3.733,4.373,7.3,3.4,9.314-2.539,10.415-1.422,8.713,9.087,6.233,3.213,17.677-4.74,19.239,9.214,2.489-1.375,4.509-1.994,5.842-3.31,7.292-7.2,17.326-9.626,25.534-15.042,3.95-2.607,6.08-7.974,9.4-12.6,5.272,3.32,9.93-.834,15.194-6.212.968,1.468,1.654,2.727,2.546,3.816,2.243,2.739,4.791,3.188,6.892.035,3.2-4.794,5.7-10.089,9.206-14.626,5.422-7.016,6.134-15.269,7.963-23.421.779-3.473,4.208-6.762,7.183-9.228,3.716-3.08,5.368-6.088,4.126-10.982-1.676-6.6.651-8.476,7.5-8.541,4.025-.038,8.016-1.924,12.052-2.853,4.394-1.011,8.79-2.119,13.247-2.716,2.971-.4,6.3.794,9.031-.081,5.867-1.878,11.219-3.243,15.764,2.482a2.436,2.436,0,0,0,2.219.656c6.379-3.727,8.267.77,10.88,5.227.838,1.429,4.3,2.183,6.356,1.881,6.878-1.013,13.115-1.538,17.995,5.15.914,1.252,6.529,1.2,7.6-.139,6.023-7.572,12.862-8.38,21-4.234.466.238,1.158.032,2.169.032.579-1.6.768-3.648,1.879-4.829a16.872,16.872,0,0,1,6.252-4.507c4.858-1.7,9.952-2.721,14.7-3.956,3.269,1.663,7.541,3.314,11.167,5.878,2.154,1.525,3.29,4.49,5.66,7.935-1.05-.478-.692-.184-.321-.165,9.756.49,9.366.65,13.229,9.806a125.592,125.592,0,0,0,11.011,20.8c3.867,5.8,10.068,8.7,17.282,8.509,1.532-.041,3.86-.3,4.422-1.271,2.068-3.574,4.763-4.045,8.74-4.537,7.594-.94,14.922-3.86,22.473-5.406a16.282,16.282,0,0,1,9.225.676c4.208,1.831,6.271.687,8.258-2.981,3.2-5.909,10.948-8.649,17.551-6.5,3.551,1.158,2.48,3.1,1.254,5.61-1.079,2.208-1.24,4.866-2.033,8.3l9.283-1.168c3.243,7.556,6.335,14.9,9.547,22.189,1.685,3.826,3.81,5.626,8.884,4.739,12.931-2.258,20.174,3.4,25.663,15.691a42.106,42.106,0,0,1,3.664,13.482c.6,5.833,11.229,7.921,16.649,3.562a15.244,15.244,0,0,1,21.189,1.675,72.09,72.09,0,0,1,5.751,7.82c2.456,3.824,1.928,7.559-.457,11.385-4.458,7.155-4.315,7.361,3.415,11.341-.664,1.576-1.845,3.157-1.93,4.793-.4,7.668-3.151,12.378-11.928,11.319-1.289-.156-3.346,1.549-4.06,2.91-.392.748,1.317,2.557,2.006,3.925.766,1.522,1.449,3.086,2.169,4.632-1.576.716-3.16,2.057-4.726,2.034-5.154-.075-7.99,1.432-10.074,6.906-3.646,9.567-21.02,13.409-29.334,7.351-6.593-4.8-10.55-3.275-11.563,4.468-.753,5.755-2.989,7.4-8.559,6.2a29.125,29.125,0,0,1-4.661-1.362c-4.5-1.8-8.246-.735-10.22,3.595-4.214,9.239-11.967,16.815-12.549,27.884-.107,2.051-3.842,4.97-6.391,5.65-11.153,2.971-17.452,11.052-22.632,20.356-.808,1.45.046,3.878.268,5.839.589,5.21,1.716,10.405,1.782,15.616.114,9.24-.484,9.031-9.43,12-3.074,1.021-5.566,4.609-7.662,7.5-1.707,2.356-2.185,5.563-3.627,8.159-4.452,8.008-9.309,15.75-7.092,25.723.361,1.621-1.94,3.821-2.975,5.772-1.6,3.014-3.136,6.06-4.757,9.062-1.07,1.983-1.879,4.282-3.432,5.8-6.459,6.318-13.156,12.393-20.385,19.136,3.731,2.213,6.234,3.7,9.932,5.891-8.46,4.59-4.615,16.118-13.71,20.187-1.016.455-1.085,4.832-.372,6.985,1.738,5.249.629,9.174-4.7,10.539-11.05,2.828-9.71,13.815-14.017,20.993-.513.855,3.554,4.461,6.2,7.634-2.407,3.873-2.544,10.74-10.737,10.757a3.784,3.784,0,0,0-2.632,2.479c-1.945,11.048-5.2,13.5-15.837,11.608-.584-.1-1.191-.077-2.737-.164-1.381,4.571-2.656,9.353-4.278,14.013-1.742,5-3.2,10.263-5.9,14.739-3.09,5.126-2.836,6.578,1.5,10.471,2.447,2.2,3.132,6.355,5.017,10.527-3.52.439-5.048.712-6.586.809-9.467.6-12.938,5.572-11.973,14.934.492,4.756-1.111,9.766-2.115,14.589-.118.569-2.6,1.226-3.717.9-4.136-1.191-5.6,1.007-7.227,4.289-3.916,7.909-7.713,8.413-13.708,3.832-3.464-.8-6.93-1.6-10.392-2.411-1.7-.4-4.373-1.724-4.943-1.1-3.873,4.219-7.138,1.945-11.212.227-8.691-3.664-17.529,3.161-16.893,12.433.21,3.069,1.412,6.822-4.058,6.868-.754.006-2.006,2.305-2.137,3.63-.461,4.675-3.944,5.562-7.358,7.545-8.2,4.763-13.422-.89-19.539-4.143-2.967-1.576-6.17-2.71-10.118-4.412-.289,9.141-5.429,8.817-11.157,6.828-7.8-2.71-15.532-1.084-23.048.75-2.2.536-3.638,4.177-5.795,6.853-1.146-.825-2.418-1.676-3.615-2.621-1.271-1-2.722-3.189-3.664-2.975-7.764,1.772-15.183-8.313-23.2-.584-.913.879-4.614.388-5.746-.743-4.9-4.895-10.5-4.934-16.369-3.079-6.325,2-12.4,4.884-18.8,6.5-2.474.624-6.737-.236-8.178-2.031-9.28-11.556-21.173-8.151-32.508-5.821-4.155.854-7.691,4.723-11.8,7.409.98,1.613,1.777,2.927,2.742,4.515-.754.535-1.549,1.058-2.3,1.64-1.406,1.1-3.744,2.044-4,3.378-.8,4.144-2.929,5.721-6.985,5.928-1.2.061-2.924,1.66-3.345,2.912-1.452,4.316-4.616,5.109-8.559,5.243-10.7.365-11.245.932-11.933,11.5-7.131.492-14.339,1.179-21.559,1.313-1.3.023-3.112-2-3.851-3.491-1.384-2.788-1.535-7.43-5.866-5.941-2.177.748-4.188,4.581-4.608,7.279-.751,4.827-1.651,7.8-7.526,6.014-4.436-1.35-7.295-.136-5.918,5.417.213.861-.285,1.9-.545,3.372-2-.341-3.731-.681-5.478-.927-9.847-1.386-17.782,2.408-24.961,8.813-1.131,1.011-3.98,1.092-5.535.429-3.511-1.5-6.583-3.993-10.057-5.6-6.441-2.98-9.066-1.023-12.29,5.029-4.045,7.59-9.306,14.567-14.438,21.516-1.069,1.448-4.3,2.745-5.793,2.176-5.508-2.093-7.771,1.444-10.4,4.855-5.594,7.273-6.681,7.268-13.557,1.158a4.847,4.847,0,0,0-4.525-.44c-6.077,3.907-11.751,3.963-17.459-.307a22.984,22.984,0,0,0-24.263-1.624c-2.181,1.124-5.413,1.015-7.952.477-5.329-1.131-10.494-3.012-15.77-4.423-8.033-2.147-9.492-1.69-16.333,5.046-3.691-11.329-12.8-13.625-22.988-14.52-7.373-.648-11.854-5.452-13.136-12.418-1.986-10.8-8.342-15.956-18.915-17.263-5.261-.651-10.393-2.35-15.192-3.481l-4.356,6.105-3.073-7.886-5.4.72c.595-2.539,1.073-4.575,1.651-7.038l-6.35.921c-2.663-4.918-5.032-9.293-7.4-13.669l-1.66.626,1.118-4.964-8.38-8.275,2.025-4.594c-1.775-.319-3.54-.162-4.627-.945-1.457-1.049-3.447-2.885-3.368-4.279.383-6.775-3.089-10.555-8.752-13.142-7.364-3.363-14.634-6.941-22.037-10.218-11.009-4.873-16.563-13.438-16.75-25.24-.1-6.1-2.977-9.374-8.311-11.176a65.419,65.419,0,0,0-6.378-1.958c-7-1.594-12.057-4.869-13.979-12.522-.673-2.681-3.658-5.172-6.171-6.9-3.129-2.152-6.825-3.508-10.342-5.06-5.36-2.365-10-4.663-8.324-12.3.787-3.582-.881-7.5-5.589-8.857-1.558-.449-2.844-2.158-4.045-3.481-3.155-3.479-6-7.257-9.332-10.552-3.621-3.584-3.564-6.453.753-9.185,5.878-3.719,5.379-3.772-.106-8.419a54.558,54.558,0,0,1-12.59-15c-1.378-2.523.274-7.969,2.31-10.842,5.255-7.413,4.48-6.087-1.31-12.5-6.966-7.715-13.342-5.223-20.633-2.509a13.753,13.753,0,0,1-4.663,1.167,5.1,5.1,0,0,1-3.519-1.573c-.409-.491.208-2.4.914-3.166,4.543-4.908,7.312-11.142,14.548-14.028,3.721-1.484,6.041-7.634,7.961-12.118,1.555-3.632,2.428-4.882,6.875-3.755,8.285,2.1,16.884,2.971,25.378,4.176,1.085.154,2.32-.753,3.485-1.168-.732-1.282-1.181-2.94-2.265-3.756-1.521-1.146-3.513-1.665-6.7-3.068,3.711-1.508,6.274-2.348,8.627-3.587,1.288-.679,2.971-1.956,3.092-3.108.111-1.061-1.389-2.817-2.6-3.4-5.215-2.508-3.649-5.161-.179-7.491,4.219-2.833,5.074-6.4,3.621-10.881a5.336,5.336,0,0,0-1.389-.265c-2.626.333-5.248.714-7.87,1.08.706-2.175,1.53-4.318,2.093-6.53,1.669-6.546-3.978-3.657-6.2-4.781.884-3.523,1.71-6.985,2.647-10.416a5.213,5.213,0,0,1,1.289-2.489c3.1-2.725,7.387-14.125,5.063-16.379-5.181-5.023-2.76-10.868-3.087-16.379C124.1,313.663,125.43,311.718,126.539,308.577Z" transform="translate(-46.27 -22.72)" fill="#f0f0f8"/>
    </g>
  </g>
</svg>
<svg xmlns="http://www.w3.org/2000/svg" width="20.25" height="29.25" viewBox="0 0 20.25 29.25">
  <path id="Icon_ionic-ios-pin" data-name="Icon ionic-ios-pin" d="M18,3.375c-5.59,0-10.125,4.212-10.125,9.4C7.875,20.088,18,32.625,18,32.625S28.125,20.088,28.125,12.776C28.125,7.587,23.59,3.375,18,3.375ZM18,16.8a3.3,3.3,0,1,1,3.3-3.3A3.3,3.3,0,0,1,18,16.8Z" transform="translate(-7.875 -3.375)" fill="#ff5f5c"/>
</svg>
<svg xmlns="http://www.w3.org/2000/svg" width="20.25" height="29.25" x="100" y="200" viewBox="0 0 20.25 29.25">
  <path id="Icon_ionic-ios-pin" data-name="Icon ionic-ios-pin" d="M18,3.375c-5.59,0-10.125,4.212-10.125,9.4C7.875,20.088,18,32.625,18,32.625S28.125,20.088,28.125,12.776C28.125,7.587,23.59,3.375,18,3.375ZM18,16.8a3.3,3.3,0,1,1,3.3-3.3A3.3,3.3,0,0,1,18,16.8Z" transform="translate(-7.875 -3.375)" fill="#ff5f5c"/>
</svg>

</svg>
